<?xml version="1.0" standalone="no"?>
<!DOCTYPE svg PUBLIC "-//W3C//DTD SVG 20010904//EN"
 "http://www.w3.org/TR/2001/REC-SVG-20010904/DTD/svg10.dtd">
<svg version="1.0" xmlns="http://www.w3.org/2000/svg"
 width="253.000000pt" height="229.000000pt" viewBox="0 0 253.000000 229.000000"
 preserveAspectRatio="xMidYMid meet">

<g transform="translate(0.000000,229.000000) scale(0.100000,-0.100000)"
fill="#000000" stroke="none">
<path d="M610 1360 l0 -650 25 0 25 0 0 597 c0 335 4 593 9 588 11 -13 47 -80
254 -475 93 -179 176 -334 183 -344 14 -21 54 -30 54 -12 -1 6 -50 103 -110
216 -60 113 -171 323 -247 468 -130 246 -139 262 -165 262 l-28 0 0 -650z"/>
<path d="M783 1928 c50 -95 118 -221 205 -388 250 -475 249 -474 276 -481 32
-9 33 4 6 48 -10 18 -119 223 -241 455 -122 233 -226 429 -231 436 -6 6 -21
12 -35 12 -24 0 -24 -1 20 -82z"/>
<path d="M870 2007 c0 -2 22 -44 49 -93 26 -49 133 -251 236 -449 103 -198
195 -370 203 -382 10 -16 24 -23 46 -23 30 0 33 5 165 258 216 416 306 581
314 582 4 0 7 -268 7 -596 l0 -595 23 3 22 3 0 550 c0 303 -1 594 -3 648 l-3
98 -26 -3 c-27 -3 -9 29 -395 -708 -92 -175 -100 -190 -109 -190 -3 0 -63 109
-133 243 -327 626 -341 652 -370 655 -14 2 -26 1 -26 -1z"/>
<path d="M1535 1843 c-237 -447 -237 -446 -225 -472 l11 -24 21 33 c11 19 88
163 170 320 83 157 155 291 160 298 8 9 3 12 -18 12 -28 0 -35 -10 -119 -167z"/>
<path d="M1718 1943 c-20 -38 -52 -97 -70 -133 -19 -36 -90 -170 -157 -298
-94 -179 -121 -239 -117 -258 4 -13 10 -24 14 -24 4 0 27 39 52 88 25 48 116
221 203 385 86 164 157 300 157 303 0 2 -10 4 -23 4 -18 0 -31 -14 -59 -67z"/>
<path d="M720 1200 l0 -490 25 0 25 0 0 450 c0 433 -1 452 -20 490 -11 22 -23
40 -25 40 -3 0 -5 -220 -5 -490z"/>
<path d="M1791 1643 c-21 -47 -22 -53 -19 -488 l3 -440 23 -3 22 -3 0 490 c0
270 -1 491 -3 491 -2 0 -13 -21 -26 -47z"/>
<path d="M1682 1441 c-21 -38 -22 -48 -22 -385 l0 -346 25 0 25 0 0 385 c0
212 -1 385 -3 385 -2 0 -13 -17 -25 -39z"/>
<path d="M840 1093 l0 -383 25 0 25 0 0 338 c-1 337 -1 337 -25 382 l-24 45
-1 -382z"/>
<path d="M950 980 l0 -270 25 0 25 0 0 230 c0 212 -2 234 -20 270 -11 22 -23
40 -25 40 -3 0 -5 -121 -5 -270z"/>
<path d="M1567 1221 c-15 -25 -17 -60 -17 -270 0 -234 1 -241 20 -241 20 0 20
7 20 270 0 149 -1 270 -3 270 -1 0 -10 -13 -20 -29z"/>
</g>
</svg>
